{"title":"Bleeder.1999.DVD.x264.AC3.mkv","uid":15172418,"size":2180758809,"categoryP":"video","categoryS":"movies","magnet":"?xt=urn:btih:18f0cb479a00acb2136ee564a842798628c1e46a&amp;dn=Bleeder.1999.DVD.x264.AC3.mkv&amp;tr=udp%3A%2F%2Ftracker.leechers-paradise.org%3A6969&amp;tr=udp%3A%2F%2Fzer0day.ch%3A1337&amp;tr=udp%3A%2F%2Fopen.demonii.com%3A1337&amp;tr=udp%3A%2F%2Ftracker.coppersurfer.tk%3A6969&amp;tr=udp%3A%2F%2Fexodus.desync.com%3A6969","seeders":1,"leechers":0,"uploader":null,"files":1,"time":1467402305,"description":"[IMG]http://www.codefuture.co.uk/projects/imagehost/demo/di/4YFK/vlcsnap-2016-06-26-04h03m21s327.png[/IMG]\r\n\r\n[IMG]http://www.codefuture.co.uk/projects/imagehost/demo/di/6W6O/vlcsnap-2016-06-26-04h03m35s347.png[/IMG]\r\n\r\n[IMG]http://www.codefuture.co.uk/projects/imagehost/demo/di/JOL7/vlcsnap-2016-06-26-04h03m47s567.png[/IMG]\r\n\r\n\r\nFormat                                   : Matroska\r\nFormat version                           : Version 2\r\nFile size                                : 2.03 GiB\r\nDuration                                 : 1h 33mn\r\nOverall bit rate                         : 3 105 Kbps\r\nEncoded date                             : UTC 2012-06-19 00:34:48\r\nWriting application                      : mkvmerge v5.6.0 ('Kenya Kane') built on May 27 2012 16:44:04\r\nWriting library                          : libebml v1.2.3 + libmatroska v1.3.0\r\n\r\nVideo\r\nID                                       : 1\r\nFormat                                   : AVC\r\nFormat/Info                              : Advanced Video Codec\r\nFormat profile                           :   \r\nFormat settings, CABAC                   : Yes\r\nFormat settings, ReFrames                : 16 frames\r\nCodec ID                                 : V_MPEG4/ISO/AVC\r\nDuration                                 : 1h 33mn\r\nBit rate                                 : 2 595 Kbps\r\nWidth                                    : 716 pixels\r\nHeight                                   : 434 pixels\r\nDisplay aspect ratio                     : 2.35:1\r\nFrame rate mode                          : Constant\r\nFrame rate                               : 25.000 fps\r\nColor space                              : YUV\r\nChroma subsampling                       : 4:2:0\r\nBit depth                                : 8 bits\r\nScan type                                : Progressive\r\nBits/(Pixel*Frame)                       : 0.334\r\nStream size                              : 1.70 GiB (84%)\r\nWriting library                          : x264 core 125 r2200 999b753\r\nEncoding settings                        : cabac=1 / ref=16 / deblock=1:-3:-3 / analyse=0x3:0x133 / me=umh / subme=11 / psy=1 / psy_rd=1.00:0.00 / mixed_ref=1 / me_range=64 / chroma_me=1 / trellis=2 / 8x8dct=1 / cqm=0 / deadzone=21,11 / fast_pskip=0 / chroma_qp_offset=-2 / threads=6 / lookahead_threads=2 / sliced_threads=0 / nr=0 / decimate=1 / interlaced=0 / bluray_compat=0 / constrained_intra=0 / bframes=16 / b_pyramid=2 / b_adapt=2 / b_bias=0 / direct=3 / weightb=1 / open_gop=0 / weightp=2 / keyint=250 / keyint_min=25 / scenecut=40 / intra_refresh=0 / rc_lookahead=60 / rc=crf / mbtree=1 / crf=15.8 / qcomp=0.60 / qpmin=0 / qpmax=69 / qpstep=4 / ip_ratio=1.40 / aq=2:1.00\r\nLanguage                                 : Danish\r\nDefault                                  : Yes\r\nForced                                   : No\r\n\r\nAudio\r\nID                                       : 2\r\nFormat                                   : AC-3\r\nFormat/Info                              : Audio Coding 3\r\nMode extension                           : CM (complete main)\r\nFormat settings, Endianness              : Big\r\nCodec ID                                 : A_AC3\r\nDuration                                 : 1h 33mn\r\nBit rate mode                            : Constant\r\nBit rate                                 : 448 Kbps\r\nChannel(s)                               : 6 channels\r\nChannel positions                        : Front: L C R, Side: L R, LFE\r\nSampling rate                            : 48.0 KHz\r\nBit depth                                : 16 bits\r\nCompression mode                         : Lossy\r\nStream size                              : 300 MiB (14%)\r\nLanguage                                 : Danish\r\nDefault                                  : Yes\r\nForced                                   : No\r\n\r\nText\r\nID                                       : 3\r\nFormat                                   : UTF-8\r\nCodec ID                                 : S_TEXT/UTF8\r\nCodec ID/Info                            : UTF-8 Plain Text\r\nLanguage                                 : English\r\nDefault                                  : Yes\r\nForced                                   : No","torrent":{"xt":"urn:btih:18f0cb479a00acb2136ee564a842798628c1e46a","amp;dn":"Bleeder.1999.DVD.x264.AC3.mkv","amp;tr":["udp%3A%2F%2Ftracker.leechers-paradise.org%3A6969","udp%3A%2F%2Fzer0day.ch%3A1337","udp%3A%2F%2Fopen.demonii.com%3A1337","udp%3A%2F%2Ftracker.coppersurfer.tk%3A6969","udp%3A%2F%2Fexodus.desync.com%3A6969"],"infoHash":"18f0cb479a00acb2136ee564a842798628c1e46a","infoHashBuffer":{"type":"Buffer","data":[24,240,203,71,154,0,172,178,19,110,229,100,168,66,121,134,40,193,228,106]},"announce":[],"urlList":[]}}